<?xml version="1.0" encoding="utf-8"?>
<!-- Generator: Adobe Illustrator 16.0.4, SVG Export Plug-In . SVG Version: 6.00 Build 0)  -->
<!DOCTYPE svg PUBLIC "-//W3C//DTD SVG 1.1//EN" "http://www.w3.org/Graphics/SVG/1.1/DTD/svg11.dtd">
<svg version="1.1" id="Layer_1" xmlns="http://www.w3.org/2000/svg" xmlns:xlink="http://www.w3.org/1999/xlink" x="0px" y="0px"
	 width="100px" height="100px" viewBox="0 0 100 100" enable-background="new 0 0 100 100" xml:space="preserve">
<g>
	<path fill="#FFFFFF" d="M62.467,54.037l-5.699-13.773c0,0,1.346-8.232,9.816-10.923c0,0,8.469-2.85,14.959,4.828v-9.895
		c0,0-0.158-4.986-5.699-4.986l-52.321-0.08c0,0-4.987,0.476-5.146,5.304v18.76l5.224-13.061h5.699l10.844,26.28h-5.699
		l-2.454-5.859H21.307l-1.899,4.433c0,0,7.52,12.109,29.445,12.744c0,0,21.45,1.584,32.771-13.932v-2.611
		C81.623,51.268,73.785,61.715,62.467,54.037z M55.738,56.57l-2.533-6.095H42.52l-1.425,3.72l-3.008-6.966l6.886-17.018h5.858
		L61.674,56.57H55.738z"/>
	<polygon fill="#FFFFFF" points="22.73,46.042 30.25,46.042 26.451,36.306 	"/>
	<polygon fill="#FFFFFF" points="44.181,46.042 51.701,46.042 47.902,36.306 	"/>
	<circle fill="#FFFFFF" cx="70.584" cy="42.639" r="8.391"/>
	<path fill="#FFFFFF" d="M18.457,59.895v16.307c0,0,0.079,4.512,5.778,4.59h52.241c0,0,5.066-0.396,5.066-4.986V60.133
		c0,0-9.17,11.568-31.267,11.555C50.276,71.688,31.201,73.033,18.457,59.895z"/>
</g>
</svg>
