<?xml version="1.0" encoding="utf-8"?>
<!-- Generator: Adobe Illustrator 16.0.4, SVG Export Plug-In . SVG Version: 6.00 Build 0)  -->
<!DOCTYPE svg PUBLIC "-//W3C//DTD SVG 1.1//EN" "http://www.w3.org/Graphics/SVG/1.1/DTD/svg11.dtd">
<svg version="1.1" id="Layer_1" xmlns="http://www.w3.org/2000/svg" xmlns:xlink="http://www.w3.org/1999/xlink" x="0px" y="0px"
	 width="100px" height="100px" viewBox="0 0 100 100" enable-background="new 0 0 100 100" xml:space="preserve">
<g>
	<path fill="#FFFFFF" d="M50,85.502c9.483,0,18.399-3.693,25.104-10.398s10.397-15.621,10.397-25.104
		c0-9.481-3.692-18.397-10.397-25.103C68.399,18.19,59.483,14.498,50,14.498c-19.576,0-35.502,15.926-35.502,35.501
		c0,9.483,3.693,18.399,10.398,25.104C31.602,81.809,40.518,85.502,50,85.502z M14.887,49.999c0-9.379,3.652-18.196,10.285-24.828
		S40.621,14.887,50,14.887c9.381,0,18.196,3.652,24.83,10.284c6.631,6.632,10.283,15.449,10.283,24.828
		c0,19.361-15.751,35.114-35.113,35.114c-9.379,0-18.196-3.653-24.829-10.285C18.539,68.197,14.887,59.379,14.887,49.999z"/>
	<path fill="#FFFFFF" d="M67.258,25.488l0.08-0.714l-1.69-1.104l-0.621,0.36l-1.206-0.788l3.796-1.907l1.067,0.697l-0.219,4.242
		L67.258,25.488z M67.454,23.729l0.132-1.181l-1.027,0.597L67.454,23.729z"/>
	<path fill="#FFFFFF" d="M43.51,20.607l-0.487-0.527l-1.94,0.555l-0.135,0.705l-1.386,0.396l1.045-4.118l1.226-0.351l3.063,2.944
		L43.51,20.607z M42.309,19.307l-0.806-0.872l-0.223,1.167L42.309,19.307z"/>
	<path fill="#FFFFFF" d="M50,21.973c7.486,0,14.524,2.915,19.818,8.209s8.209,12.332,8.209,19.817
		c0,15.454-12.572,28.028-28.027,28.028c-7.486,0-14.524-2.916-19.818-8.21c-5.293-5.294-8.209-12.33-8.209-19.818
		c0-7.485,2.916-14.523,8.209-19.817C35.476,24.888,42.514,21.973,50,21.973z M21.584,49.999c0,7.591,2.956,14.728,8.323,20.093
		C35.274,75.459,42.41,78.416,50,78.416c7.592,0,14.726-2.957,20.093-8.324c5.368-5.365,8.323-12.502,8.323-20.093
		c0-7.59-2.955-14.726-8.323-20.092C64.726,24.54,57.592,21.583,50,21.583C34.331,21.583,21.584,34.331,21.584,49.999z"/>
	<path fill="#FFFFFF" d="M52.525,63.357c1.891-0.866,2.999-2.548,2.999-4.828c0-3.824-3.603-5.949-7.163-5.949
		c-4.954,0-9.615,2.672-15.055,6.558c6.757-5.97,14.286-11.11,21.125-11.11c5.18,0,10.381,2.348,10.381,7.771
		c0,3.099-1.389,5.436-3.58,7.424l-0.234,0.224l12.298,0.002l-8.371-14.493l-0.155-0.307c-1.406-2.221-4.054-3.891-7.548-3.891
		c-6.334,0-14.688,4.061-28.65,17.537c13.886-17.061,24.712-23.19,32.699-19.693l-1.278-2.188l-0.329-0.565
		c-9.667-3.077-19.026,6.357-30.424,20.443c7.273-10.398,18.272-24.321,28.92-23.179l-8.16-14.003L26.712,63.441l25.569,0.003
		L52.525,63.357z"/>
	<path fill="#FFFFFF" d="M17.418,50.827c0,0.145,0.148,0.402,0.436,0.402l0.85,0.001c0.289,0.001,0.438-0.256,0.438-0.401
		l0.003-1.745c0-0.145-0.148-0.402-0.437-0.402l-0.851-0.002c-0.288,0-0.437,0.257-0.437,0.401L17.418,50.827z M16.324,49.99
		c0.001-0.442,0.047-1.098,0.108-1.475c0.111-0.683,0.562-0.871,0.912-0.916c0.485-0.063,1.199-0.096,1.806,0.002
		c0.349,0.056,0.8,0.236,0.909,0.919c0.061,0.377,0.104,1.033,0.104,1.476s-0.047,1.061-0.108,1.437
		c-0.111,0.683-0.563,0.823-0.912,0.879c-0.608,0.097-1.321,0.062-1.806-0.002c-0.35-0.047-0.801-0.198-0.91-0.882
		C16.367,51.051,16.323,50.433,16.324,49.99z"/>
	<polygon fill="#FFFFFF" points="81.235,51.187 79.931,49.952 79.985,48.542 82.288,50.649 83.577,50.698 83.533,51.851 
		82.244,51.802 79.786,53.729 79.841,52.318 	"/>
	<polygon fill="#FFFFFF" points="16.594,53.896 20.211,53.262 20.875,57.052 20.002,57.204 19.537,54.551 18.984,54.646 
		19.416,57.114 18.521,57.271 18.089,54.803 16.793,55.03 	"/>
	<polygon fill="#FFFFFF" points="22.959,67.339 22.542,67.622 24.14,69.977 23.344,70.517 21.099,67.209 24.136,65.145 26.34,68.39 
		25.607,68.889 24.051,66.599 23.637,66.878 25.086,69.013 24.408,69.474 	"/>
	<path fill="#FFFFFF" d="M28.508,74.11c-0.563,0.547-1.27,0.609-1.931-0.074l-2.353-2.433l2.641-2.553l2.353,2.432
		c0.661,0.685,0.574,1.387,0.011,1.933L28.508,74.11z M28.366,72.664c0.186-0.18,0.201-0.447,0.021-0.634l-1.424-1.471l-1.189,1.15
		l1.424,1.471c0.18,0.187,0.448,0.18,0.634,0L28.366,72.664z"/>
	<path fill="#FFFFFF" d="M51.618,82.197l-1.154-0.024c-0.003,0.182-0.114,0.374-0.326,0.369l-1.562-0.032
		c-0.137-0.003-0.377-0.158-0.37-0.446l0.016-0.742c0.006-0.288,0.252-0.432,0.389-0.43l1.562,0.033
		c0.212,0.005,0.314,0.201,0.311,0.383l1.153,0.024l0.009-0.425c0.009-0.353-0.206-0.806-0.848-0.929
		c-0.355-0.068-0.974-0.127-1.392-0.136s-1.039,0.024-1.396,0.077c-0.647,0.097-0.826,0.545-0.887,0.894
		c-0.104,0.604-0.087,1.318-0.037,1.805c0.036,0.351,0.205,0.805,0.848,0.928c0.355,0.067,0.974,0.128,1.392,0.136
		s1.039-0.023,1.396-0.076c0.646-0.098,0.878-0.54,0.886-0.892L51.618,82.197z"/>
	<polygon fill="#FFFFFF" points="66.562,76.21 68.001,78.295 67.051,78.95 64.965,75.929 66.352,74.973 69.512,75.87 68.071,73.784 
		68.946,73.181 71.031,76.203 69.646,77.16 	"/>
	<polygon fill="#FFFFFF" points="39.514,78.113 39.119,78.984 37.778,78.377 36.657,80.852 35.607,80.375 36.728,77.901 
		35.387,77.293 35.782,76.422 	"/>
	<polygon fill="#FFFFFF" points="23.988,35.353 21.066,35.338 23.259,36.61 22.725,37.528 19.548,35.685 20.364,34.28 
		22.871,34.253 21.652,32.062 22.466,30.658 25.643,32.502 25.109,33.421 22.917,32.148 24.379,34.678 	"/>
	<path fill="#FFFFFF" d="M33.178,79.089l0.069-0.714l-1.706-1.079l-0.616,0.368l-1.219-0.77l3.77-1.961l1.077,0.681l-0.158,4.247
		L33.178,79.089z M33.348,77.327l0.115-1.182l-1.019,0.61L33.348,77.327z"/>
	
		<rect x="28.146" y="74.056" transform="matrix(0.6308 -0.776 0.776 0.6308 -46.8425 50.8215)" fill="#FFFFFF" width="3.672" height="1.154"/>
	<path fill="#FFFFFF" d="M76.948,65.351l0.556-0.906l-0.246-0.149c-0.356-0.22-0.852-0.049-1.154,0.34
		c-0.253,0.326-1.005,1.521-1.217,1.979c-0.329,0.718-0.204,1.175,0.209,1.428l0.466,0.287c0.212,0.129,0.655,0.118,1.03-0.401
		c0.356-0.492,0.971-1.433,1.099-1.64c0.126-0.206,0.333-0.312,0.462-0.232s0.219,0.225,0.052,0.495l-0.763,1.241
		c-0.077,0.125-0.325,0.229-0.514,0.111l-0.572,0.932l0.387,0.237c0.168,0.104,0.754,0.196,1.154-0.341
		c0.402-0.537,1.123-1.68,1.438-2.34c0.247-0.514,0.035-0.977-0.356-1.217l-0.53-0.326c-0.168-0.104-0.674-0.113-1.023,0.368
		c-0.35,0.48-1.068,1.588-1.225,1.812s-0.294,0.157-0.397,0.094c-0.103-0.062-0.163-0.226-0.067-0.381l0.731-1.188
		C76.624,65.296,76.783,65.25,76.948,65.351z"/>
	<path fill="#FFFFFF" d="M22.141,64.013c0.124-0.058,0.221-0.245,0.147-0.404l-0.69-1.485l-0.757,0.351l0.69,1.487
		c0.074,0.157,0.279,0.204,0.403,0.146L22.141,64.013z M19.933,62.895l-0.799,0.371l-0.485-1.045l3.331-1.547l1.259,2.711
		c0.38,0.819,0.055,1.354-0.422,1.576l-0.633,0.294c-0.477,0.223-1.097,0.125-1.477-0.693L19.933,62.895z"/>
	<path fill="#FFFFFF" d="M43.173,80.332c0.033-0.132-0.049-0.326-0.218-0.37l-1.732-0.451l-0.211,0.808l1.733,0.451
		c0.168,0.044,0.335-0.084,0.369-0.218L43.173,80.332z M42.544,81.722l-1.777-0.464l-0.245,0.939l-1.116-0.291l0.927-3.554
		l3.392,0.884c0.469,0.122,0.739,0.507,0.628,0.933l-0.191,0.733c-0.042,0.162-0.151,0.463-0.521,0.555
		c0.149,0.15,0.322,0.445,0.22,0.842l-0.188,0.72l-1.146-0.3l0.134-0.514C42.71,82.015,42.704,81.857,42.544,81.722z"/>
	
		<rect x="43.921" y="80.88" transform="matrix(0.1338 -0.991 0.991 0.1338 -41.0901 115.9005)" fill="#FFFFFF" width="3.671" height="1.153"/>
	<path fill="#FFFFFF" d="M60.801,80.44c0.207,0.756-0.077,1.406-0.993,1.656l-3.266,0.893l-0.968-3.541l3.263-0.894
		c0.919-0.251,1.492,0.163,1.699,0.921L60.801,80.44z M59.465,79.868c-0.068-0.249-0.297-0.391-0.545-0.322l-1.976,0.54l0.435,1.596
		l1.977-0.541c0.249-0.068,0.373-0.306,0.305-0.555L59.465,79.868z"/>
	<polygon fill="#FFFFFF" points="62.727,79.494 62.937,79.951 65.52,78.756 65.924,79.63 62.295,81.311 60.752,77.978 
		64.312,76.329 64.686,77.133 62.17,78.297 62.382,78.752 64.724,77.667 65.065,78.411 	"/>
	<polygon fill="#FFFFFF" points="72.538,69.808 73.212,70.486 72.166,71.523 74.079,73.451 73.261,74.263 71.347,72.335 
		70.303,73.371 69.63,72.692 	"/>
	
		<rect x="73.166" y="68.979" transform="matrix(-0.7876 -0.6161 0.6161 -0.7876 91.2228 170.5512)" fill="#FFFFFF" width="3.672" height="1.153"/>
	<polygon fill="#FFFFFF" points="78.495,59.398 79.381,59.76 78.825,61.122 81.342,62.147 80.905,63.216 78.389,62.19 
		77.834,63.555 76.948,63.194 	"/>
	<path fill="#FFFFFF" d="M80.545,55.801c-0.133-0.029-0.323,0.061-0.361,0.23l-0.395,1.746l0.815,0.184l0.392-1.747
		c0.04-0.171-0.095-0.333-0.229-0.362L80.545,55.801z M81.955,56.383l-0.404,1.792l0.949,0.212l-0.254,1.126l-3.583-0.805
		l0.77-3.421c0.106-0.472,0.481-0.756,0.91-0.659l0.74,0.167c0.163,0.035,0.468,0.136,0.571,0.502
		c0.145-0.153,0.436-0.339,0.833-0.249l0.727,0.163l-0.26,1.155l-0.52-0.116C82.243,56.206,82.084,56.217,81.955,56.383z"/>
	<path fill="#FFFFFF" d="M22.051,39.403l-0.71,0.107l-0.63,1.917l0.508,0.508l-0.451,1.369l-2.821-3.177l0.398-1.212l4.157-0.881
		L22.051,39.403z M20.3,39.668l-1.174,0.176l0.84,0.84L20.3,39.668z"/>
	<polygon fill="#FFFFFF" points="25.878,29.898 26.256,30.231 28.137,28.096 28.859,28.731 26.217,31.732 23.46,29.307 
		26.052,26.362 26.717,26.947 24.887,29.026 25.263,29.357 26.968,27.421 27.583,27.962 	"/>
	<path fill="#FFFFFF" d="M30.523,24.124c-0.085-0.107-0.291-0.156-0.427-0.047L28.701,25.2l0.523,0.649l1.395-1.122
		c0.136-0.109,0.132-0.32,0.047-0.427L30.523,24.124z M31.263,25.455l-1.431,1.151l0.609,0.757l-0.898,0.723l-2.302-2.861
		l2.732-2.197c0.376-0.303,0.846-0.292,1.122,0.052l0.476,0.591c0.104,0.13,0.281,0.397,0.134,0.749
		c0.209-0.031,0.55,0.005,0.807,0.324l0.466,0.58l-0.922,0.742l-0.333-0.414C31.599,25.497,31.468,25.407,31.263,25.455z"/>
	
		<rect x="31.457" y="22.401" transform="matrix(-0.5259 -0.8505 0.8505 -0.5259 31.2589 63.3792)" fill="#FFFFFF" width="3.672" height="1.154"/>
	<path fill="#FFFFFF" d="M38.968,20.544l-1.048,0.481c0.076,0.166,0.061,0.386-0.132,0.476l-1.42,0.652
		c-0.124,0.058-0.407,0.024-0.527-0.237l-0.312-0.676c-0.12-0.263,0.038-0.499,0.162-0.556l1.42-0.653
		c0.192-0.089,0.371,0.043,0.447,0.208l1.047-0.481l-0.177-0.386c-0.147-0.32-0.537-0.635-1.168-0.466
		c-0.35,0.094-0.932,0.312-1.312,0.487c-0.379,0.175-0.923,0.475-1.221,0.679c-0.541,0.37-0.506,0.852-0.408,1.189
		c0.171,0.59,0.498,1.226,0.755,1.642c0.186,0.3,0.536,0.634,1.169,0.464c0.349-0.094,0.931-0.312,1.31-0.486
		c0.381-0.175,0.924-0.475,1.222-0.679c0.541-0.37,0.555-0.869,0.408-1.19L38.968,20.544z"/>
	<polygon fill="#FFFFFF" points="46.018,17.821 46.231,20.347 45.082,20.443 44.773,16.784 46.451,16.643 48.747,18.992 
		48.534,16.467 49.593,16.377 49.901,20.037 48.223,20.178 	"/>
	<path fill="#FFFFFF" d="M57.901,21.172l-0.174-0.696l-1.969-0.446l-0.457,0.554l-1.405-0.319l2.896-3.108l1.244,0.282l1.271,4.054
		L57.901,21.172z M57.475,19.455l-0.288-1.152l-0.756,0.916L57.475,19.455z"/>
	<path fill="#FFFFFF" d="M64.504,22.089l-1.059-0.456c-0.073,0.168-0.247,0.304-0.441,0.22l-1.438-0.618
		c-0.125-0.054-0.288-0.286-0.174-0.551L61.687,20c0.114-0.264,0.396-0.305,0.521-0.251l1.437,0.618
		c0.194,0.083,0.215,0.304,0.143,0.472l1.06,0.456l0.169-0.392c0.139-0.323,0.111-0.822-0.438-1.179
		c-0.302-0.196-0.854-0.482-1.237-0.648c-0.385-0.165-0.971-0.368-1.322-0.453c-0.637-0.154-0.971,0.194-1.157,0.493
		c-0.323,0.521-0.576,1.189-0.714,1.659c-0.099,0.339-0.112,0.823,0.437,1.18c0.305,0.196,0.855,0.482,1.24,0.648
		c0.383,0.165,0.971,0.368,1.321,0.453c0.636,0.154,1.017-0.169,1.157-0.493L64.504,22.089z"/>
	<path fill="#FFFFFF" d="M72.987,28.687c-0.532,0.575-1.232,0.678-1.932,0.031l-2.482-2.299l2.495-2.695l2.483,2.299
		c0.697,0.646,0.649,1.354,0.117,1.929L72.987,28.687z M72.768,27.249c0.175-0.188,0.175-0.457-0.014-0.633l-1.502-1.392
		l-1.126,1.214l1.504,1.392c0.189,0.175,0.456,0.154,0.632-0.035L72.768,27.249z"/>
	<polygon fill="#FFFFFF" points="74.175,29.962 73.777,30.273 75.534,32.512 74.776,33.105 72.31,29.959 75.199,27.692 
		77.619,30.78 76.924,31.326 75.213,29.147 74.818,29.456 76.412,31.486 75.767,31.992 	"/>
	<polygon fill="#FFFFFF" points="76.402,36.067 77.997,33.62 75.74,34.773 75.257,33.827 78.527,32.155 79.268,33.603 
		77.932,35.725 80.434,35.886 81.173,37.331 77.902,39.003 77.418,38.058 79.677,36.903 76.758,36.763 	"/>
	<polygon fill="#FFFFFF" points="81.127,41.706 82.736,42.502 83.101,43.865 80.278,42.529 79.033,42.861 78.735,41.747 
		79.982,41.414 81.765,38.851 82.128,40.214 	"/>
</g>
</svg>
