<?xml version="1.0" encoding="utf-8"?>
<!-- Generator: Adobe Illustrator 16.0.4, SVG Export Plug-In . SVG Version: 6.00 Build 0)  -->
<!DOCTYPE svg PUBLIC "-//W3C//DTD SVG 1.1//EN" "http://www.w3.org/Graphics/SVG/1.1/DTD/svg11.dtd">
<svg version="1.1" id="Layer_1" xmlns="http://www.w3.org/2000/svg" xmlns:xlink="http://www.w3.org/1999/xlink" x="0px" y="0px"
	 width="100px" height="100px" viewBox="0 0 100 100" enable-background="new 0 0 100 100" xml:space="preserve">
<path fill="#FFFFFF" d="M34.584,67.289h-7.463l-2.42-7.112H9.915l-2.386,7.112H0.032l13.092-34.576h5.41
	c1.831,0,3.01,0.579,3.484,1.909c0.487,1.331,6.45,16.703,6.45,16.703h-6.975L17.257,39.64l-5.354,14.713H26.87
	c2.008,0,3.113,0.657,3.649,2.319L34.584,67.289 M99.968,67.289l-4.077-10.616c-0.523-1.662-1.63-2.319-3.639-2.319H77.285
	L82.64,39.64l4.238,11.685h6.973c0,0-5.973-15.373-6.448-16.703c-0.477-1.33-1.653-1.909-3.495-1.909h-5.4L65.415,67.289h7.497
	l2.387-7.112h14.783l2.424,7.112H99.968 M36.951,32.711v34.576h11.632c4.959,0,8.706-0.384,12.07-3.071
	c3.609-2.888,5.624-7.743,5.624-14.192c0-11.677-5.191-17.312-15.774-17.312H36.951 M43.912,61.037V38.778h6.591
	c5.869,0,8.521,3.561,8.521,11.246c0,7.801-2.793,11.014-9.383,11.014H43.912z"/>
</svg>
