<?xml version="1.0" encoding="utf-8"?>
<!-- Generator: Adobe Illustrator 16.0.4, SVG Export Plug-In . SVG Version: 6.00 Build 0)  -->
<!DOCTYPE svg PUBLIC "-//W3C//DTD SVG 1.1//EN" "http://www.w3.org/Graphics/SVG/1.1/DTD/svg11.dtd">
<svg version="1.1" id="Layer_1" xmlns="http://www.w3.org/2000/svg" xmlns:xlink="http://www.w3.org/1999/xlink" x="0px" y="0px"
	 width="100px" height="100px" viewBox="0 0 100 100" enable-background="new 0 0 100 100" xml:space="preserve">
<g>
	<path fill="#FFFFFF" d="M-0.057,64.006c0.215-0.239,0.133-0.556,0.169-0.824c0.18-1.329,0.503-2.618,0.952-3.877
		C1.85,57.1,3,55.108,4.54,53.335c1.512-1.739,3.296-3.114,5.36-4.126c1.457-0.714,2.998-1.185,4.6-1.406
		c1.46-0.202,2.93-0.177,4.402-0.039c1.171,0.109,2.32,0.306,3.453,0.608c0.819,0.218,1.611,0.506,2.358,0.919
		c0.769,0.425,1.179,1.043,1.175,1.93c-0.003,0.476,0.014,0.95,0.014,1.426c0.001,1.017-0.006,2.032-0.005,3.05
		c0,0.33-0.065,0.646-0.181,0.953c-0.15,0.397-0.388,0.492-0.767,0.293c-0.245-0.13-0.456-0.301-0.633-0.525
		c-0.515-0.656-0.926-1.383-1.448-2.034c-1.599-1.999-3.627-3.308-6.137-3.829c-1.057-0.219-2.139-0.298-3.218-0.203
		c-1.481,0.13-2.81,0.664-3.958,1.627c-1.375,1.154-2.27,2.635-2.917,4.28c-0.507,1.291-0.812,2.632-1.016,4.007
		c-0.221,1.482-0.248,2.971-0.149,4.451c0.175,2.622,0.789,5.145,2.052,7.475c1.364,2.514,3.276,4.465,5.917,5.645
		c1.121,0.502,2.299,0.789,3.519,0.941c0.687,0.088,1.37,0.094,2.055,0.084c1.334-0.021,2.609-0.33,3.84-0.836
		c1.556-0.64,2.912-1.598,4.217-2.64c0.446-0.354,0.882-0.728,1.384-1.008c0.17-0.095,0.341-0.189,0.556-0.119
		c0.373,0.126,0.529,0.405,0.407,0.81c-0.162,0.536-0.445,1.021-0.773,1.467c-1.731,2.354-4.011,3.988-6.708,5.072
		c-1.243,0.5-2.533,0.838-3.848,1.061c-1.16,0.195-2.336,0.24-3.516,0.229c-0.886-0.011-1.752-0.101-2.62-0.279
		c-1.306-0.271-2.53-0.738-3.689-1.383c-1.428-0.793-2.691-1.803-3.773-3.021c-1.669-1.878-2.884-4.023-3.648-6.42
		c-0.396-1.241-0.677-2.511-0.802-3.812c-0.008-0.072-0.018-0.128-0.099-0.142C-0.057,66.562-0.057,65.284-0.057,64.006z"/>
	<path fill="#FFFFFF" d="M90.801,17.101c0.002,2.179,0,4.358,0.009,6.538c0,0.214-0.062,0.367-0.212,0.517
		c-1.088,1.066-2.146,2.166-3.26,3.206c-1.28,1.197-2.486,2.469-3.761,3.671c-1.584,1.496-3.094,3.067-4.674,4.564
		c-1.201,1.137-2.358,2.318-3.547,3.467c-1.424,1.376-2.838,2.765-4.25,4.153c-0.147,0.144-0.287,0.231-0.511,0.23
		c-2.196-0.009-4.393-0.006-6.588-0.007c-0.027,0-0.057-0.014-0.09-0.023c0.039-0.156,0.174-0.235,0.276-0.335
		c1.881-1.848,3.744-3.713,5.653-5.532c1.339-1.276,2.623-2.609,3.971-3.877c1.479-1.393,2.879-2.863,4.355-4.255
		c1.371-1.293,2.672-2.656,4.043-3.947c1.442-1.358,2.81-2.794,4.252-4.152c1.336-1.257,2.619-2.567,3.931-3.848
		c0.112-0.11,0.267-0.193,0.302-0.37C90.735,17.101,90.77,17.101,90.801,17.101z"/>
	<path fill="#FFFFFF" d="M52.568,77.271c-0.416,0.453-0.77,0.916-1.171,1.339c-0.804,0.846-1.691,1.582-2.677,2.2
		c-1.42,0.892-2.955,1.523-4.601,1.845c-1.334,0.263-2.683,0.306-4.043,0.155c-1.447-0.157-2.797-0.59-4.073-1.271
		c-1.462-0.781-2.684-1.854-3.74-3.123c-1.757-2.111-2.834-4.555-3.473-7.2c-0.245-1.011-0.394-2.042-0.46-3.088
		c-0.04-0.621-0.073-1.24-0.066-1.86c0.014-1.222,0.155-2.434,0.364-3.64c0.25-1.449,0.653-2.851,1.191-4.216
		c0.771-1.959,1.802-3.762,3.152-5.381c1.454-1.744,3.166-3.158,5.229-4.125c1.277-0.597,2.614-0.974,4.018-1.149
		c0.965-0.121,1.932-0.134,2.889-0.058c2.543,0.201,4.903,0.986,7.042,2.398c0.135,0.089,0.255,0.2,0.426,0.232
		c0.111-0.113,0.062-0.25,0.062-0.371c0.004-6.145,0.009-12.29-0.002-18.436c-0.002-0.962-0.282-1.839-1.073-2.472
		c-0.509-0.406-1.11-0.616-1.738-0.736c-0.639-0.123-1.286-0.197-1.927-0.302c-0.224-0.037-0.451-0.081-0.661-0.161
		c-0.287-0.108-0.51-0.283-0.499-0.645c0.011-0.359,0.135-0.632,0.47-0.795c0.091-0.043,0.185-0.055,0.28-0.08
		c2.148-0.568,4.21-1.353,6.154-2.442c0.695-0.391,1.41-0.752,2.117-1.122c0.363-0.189,0.737-0.331,1.149-0.394
		c0.595-0.092,1.062,0.216,1.146,0.826c0.033,0.226,0.021,0.458,0.021,0.688c0,17.993,0.006,35.985-0.011,53.979
		c-0.001,0.856,0.343,1.385,1.079,1.734c0.771,0.367,1.594,0.555,2.426,0.711c0.254,0.047,0.507,0.107,0.771,0.129
		c0.246,0.021,0.474,0.135,0.533,0.428c0.062,0.309-0.022,0.518-0.33,0.691c-0.4,0.227-0.848,0.342-1.293,0.428
		c-0.654,0.127-1.318,0.188-1.986,0.236c-0.67,0.053-1.34,0.021-2.006,0.078c-0.894,0.078-1.771,0.255-2.647,0.428
		c-0.365,0.071-0.731,0.146-1.11,0.157c-0.393,0.015-0.606-0.187-0.746-0.509c-0.1-0.229-0.115-0.473-0.115-0.721
		c0.004-1.295,0.004-2.59,0-3.883C52.637,77.624,52.68,77.459,52.568,77.271z M52.641,65.483c0-2.213-0.008-4.424,0.004-6.637
		c0.005-0.854-0.102-1.689-0.299-2.516c-0.377-1.574-1.135-2.95-2.291-4.086c-0.993-0.973-2.174-1.654-3.489-2.112
		c-1.373-0.479-2.787-0.635-4.235-0.597c-1.142,0.03-2.224,0.286-3.258,0.752c-1.987,0.896-3.386,2.408-4.421,4.287
		c-1.366,2.479-1.894,5.176-2.041,7.968c-0.033,0.62,0.013,1.237,0.056,1.856c0.059,0.832,0.167,1.656,0.345,2.465
		c0.518,2.367,1.339,4.623,2.596,6.707c0.997,1.655,2.202,3.127,3.782,4.258c1.442,1.035,3.042,1.604,4.831,1.619
		c1.053,0.008,2.081-0.135,3.09-0.412c1.282-0.351,2.429-0.971,3.358-1.922c1.297-1.326,1.974-2.93,1.973-4.802
		C52.639,70.036,52.641,67.759,52.641,65.483z"/>
	<path fill="#FFFFFF" d="M81.86,78.354c-0.438,0.39-0.894,0.781-1.381,1.136c-2.095,1.526-4.39,2.595-6.938,3.121
		c-1.459,0.301-2.924,0.334-4.389,0.248c-1.152-0.065-2.284-0.322-3.336-0.853c-1.379-0.695-2.328-1.763-2.848-3.214
		c-0.279-0.785-0.44-1.592-0.506-2.428c-0.039-0.506-0.074-1.011-0.057-1.516c0.066-1.757,0.438-3.427,1.559-4.843
		c0.778-0.981,1.709-1.8,2.771-2.468c1.975-1.238,4.123-2.075,6.339-2.764c1.492-0.463,3-0.854,4.524-1.19
		c1.078-0.237,2.162-0.452,3.25-0.652c0.248-0.046,0.328-0.14,0.326-0.38c-0.01-2.163,0.092-4.332-0.041-6.488
		c-0.158-2.648-1.558-4.546-4.006-5.615c-0.824-0.359-1.697-0.539-2.598-0.632c-0.688-0.071-1.374-0.096-2.054-0.049
		c-0.987,0.067-1.982,0.107-2.933,0.458c-1.47,0.544-2.244,1.617-2.44,3.134c-0.04,0.305-0.103,0.609-0.106,0.922
		c-0.015,0.873,0.19,1.713,0.344,2.562c0.061,0.335,0.139,0.678,0.125,1.015c-0.047,1.205-0.469,1.434-1.439,1.506
		c-0.984,0.076-1.846-0.328-2.633-0.89c-0.174-0.122-0.336-0.26-0.49-0.407c-0.598-0.574-0.727-1.289-0.582-2.072
		c0.294-1.596,1.021-2.976,2.075-4.2c1.667-1.938,3.784-3.106,6.237-3.716c1.016-0.252,2.045-0.385,3.094-0.413
		c0.896-0.024,1.793-0.02,2.683,0.041c2.294,0.153,4.521,0.611,6.546,1.763c1.932,1.1,3.184,2.718,3.594,4.93
		c0.069,0.381,0.123,0.771,0.123,1.166c-0.006,5.85-0.002,11.7-0.008,17.551c0,1.016-0.052,2.031,0.012,3.047
		c0.05,0.779,0.211,1.535,0.551,2.259c0.546,1.167,1.927,1.674,3.029,1.455c0.318-0.063,0.646-0.085,0.969-0.128
		c0.203-0.026,0.393,0.041,0.572,0.104c0.242,0.084,0.354,0.327,0.324,0.589c-0.082,0.692-0.576,1.041-1.137,1.301
		c-0.684,0.316-1.419,0.474-2.165,0.547c-0.631,0.062-1.256,0.1-1.899,0.024c-1.853-0.213-3.303-1.049-4.303-2.632
		c-0.201-0.316-0.392-0.643-0.518-0.998C82.06,78.567,82.034,78.423,81.86,78.354z M81.172,69.895c0-0.245,0-0.491,0-0.735
		c0-1.311,0.004-2.623,0-3.934c0-0.361-0.045-0.396-0.396-0.322c-0.237,0.053-0.47,0.129-0.71,0.178
		c-1.732,0.355-3.459,0.748-5.146,1.289c-1.668,0.533-3.271,1.209-4.688,2.26c-1.925,1.427-2.935,3.32-2.933,5.732
		c0,0.358,0.053,0.713,0.078,1.07c0.058,0.786,0.213,1.551,0.534,2.266c0.503,1.119,1.315,1.928,2.482,2.367
		c1.362,0.512,2.765,0.614,4.187,0.363c2.016-0.357,3.768-1.251,5.163-2.768c0.931-1.004,1.443-2.193,1.433-3.59
		C81.166,72.68,81.172,71.286,81.172,69.895z"/>
	<path fill="#FFFFFF" d="M80.186,18.945c0,2.233-0.002,4.38,0.004,6.526c0.001,0.181-0.064,0.301-0.189,0.425
		c-1.109,1.092-2.188,2.216-3.324,3.28c-1.362,1.277-2.652,2.627-4.004,3.917c-1.836,1.753-3.61,3.568-5.438,5.328
		c-1.017,0.976-2.006,1.978-3.022,2.95c-0.078,0.074-0.132,0.194-0.27,0.186c-0.105-0.093-0.057-0.215-0.057-0.32
		c-0.002-2.016,0.002-4.032-0.008-6.047c0-0.25,0.068-0.425,0.25-0.602c2.133-2.083,4.235-4.195,6.389-6.257
		c1.49-1.428,2.925-2.912,4.425-4.329c1.535-1.452,3.013-2.962,4.524-4.436C79.674,19.363,79.906,19.184,80.186,18.945z"/>
	<path fill="#FFFFFF" d="M93.309,29.881c-0.231,0.238-0.398,0.414-0.57,0.584c-1.719,1.708-3.416,3.439-5.163,5.118
		c-2.407,2.315-4.745,4.698-7.127,7.038c-0.244,0.24-0.513,0.456-0.755,0.698c-0.15,0.152-0.326,0.122-0.503,0.122
		c-1.474,0.001-2.948,0-4.422,0c-0.604,0-1.209,0-1.832,0c-0.013-0.221,0.153-0.298,0.262-0.398c1.75-1.652,3.431-3.374,5.14-5.067
		c0.813-0.806,1.625-1.616,2.441-2.421c1.816-1.793,3.641-3.582,5.448-5.383c0.217-0.215,0.426-0.3,0.729-0.298
		c1.948,0.014,3.897,0.007,5.846,0.007C92.942,29.881,93.082,29.881,93.309,29.881z"/>
	<path fill="#FFFFFF" d="M95.547,36.11c-0.121,0.084-0.254,0.155-0.356,0.257c-2.25,2.243-4.498,4.485-6.733,6.74
		c-0.238,0.239-0.471,0.346-0.812,0.343c-1.932-0.016-3.863-0.008-5.795-0.008c-0.145,0-0.289,0-0.441,0
		c0.028-0.184,0.168-0.256,0.271-0.355c0.941-0.909,1.886-1.814,2.828-2.722c1.061-1.021,2.111-2.05,3.184-3.06
		c0.404-0.381,0.822-0.747,1.21-1.145c0.122-0.126,0.251-0.186,0.431-0.186c2.045,0.006,4.092,0.003,6.137,0.003
		C95.493,36.021,95.52,36.065,95.547,36.11z"/>
	<g>
		<path fill="#FFFFFF" d="M97.37,77.17c0.451,0,0.894,0.114,1.322,0.348c0.431,0.229,0.765,0.562,1.006,0.994
			c0.239,0.431,0.358,0.88,0.358,1.349c0,0.463-0.117,0.907-0.354,1.336c-0.235,0.428-0.567,0.758-0.995,0.996
			c-0.426,0.236-0.873,0.354-1.338,0.354s-0.912-0.117-1.338-0.354c-0.427-0.238-0.758-0.568-0.996-0.996
			c-0.238-0.429-0.355-0.873-0.355-1.336c0-0.469,0.119-0.918,0.361-1.349c0.24-0.433,0.575-0.765,1.008-0.994
			C96.478,77.284,96.92,77.17,97.37,77.17z M97.37,77.614c-0.378,0-0.745,0.099-1.104,0.291c-0.356,0.192-0.638,0.472-0.839,0.83
			c-0.201,0.36-0.303,0.734-0.303,1.125c0,0.387,0.1,0.758,0.297,1.113s0.477,0.632,0.832,0.829
			c0.356,0.198,0.729,0.298,1.115,0.298c0.389,0,0.76-0.1,1.115-0.298c0.357-0.197,0.634-0.474,0.831-0.829
			c0.196-0.355,0.295-0.727,0.295-1.113c0-0.391-0.101-0.765-0.302-1.125c-0.2-0.358-0.479-0.638-0.84-0.83
			C98.112,77.712,97.746,77.614,97.37,77.614z M96.19,81.346V78.45h0.995c0.34,0,0.586,0.027,0.736,0.082
			c0.152,0.054,0.273,0.146,0.363,0.279c0.09,0.133,0.135,0.273,0.135,0.424c0,0.213-0.074,0.396-0.226,0.553
			c-0.149,0.156-0.353,0.244-0.601,0.264c0.102,0.042,0.185,0.094,0.244,0.152c0.117,0.115,0.26,0.307,0.429,0.574l0.354,0.566
			h-0.569l-0.256-0.456c-0.203-0.358-0.365-0.584-0.488-0.673c-0.086-0.066-0.213-0.102-0.374-0.102h-0.274v1.229H96.19V81.346z
			 M96.658,79.718h0.566c0.271,0,0.455-0.041,0.555-0.121c0.098-0.081,0.146-0.188,0.146-0.322c0-0.084-0.024-0.16-0.071-0.229
			s-0.113-0.119-0.197-0.151c-0.085-0.034-0.241-0.05-0.468-0.05h-0.531V79.718z"/>
	</g>
</g>
</svg>
