<?xml version="1.0" encoding="utf-8"?>
<!-- Generator: Adobe Illustrator 16.0.4, SVG Export Plug-In . SVG Version: 6.00 Build 0)  -->
<!DOCTYPE svg PUBLIC "-//W3C//DTD SVG 1.1//EN" "http://www.w3.org/Graphics/SVG/1.1/DTD/svg11.dtd">
<svg version="1.1" id="Layer_1" xmlns="http://www.w3.org/2000/svg" xmlns:xlink="http://www.w3.org/1999/xlink" x="0px" y="0px"
	 width="156.056px" height="53.916px" viewBox="0 0 156.056 53.916" enable-background="new 0 0 156.056 53.916"
	 xml:space="preserve">
<g>
	<polygon fill="#22465C" points="50.166,16.574 50.166,0.977 0.898,0.977 10.668,16.574 	"/>
	<polygon fill="#22465C" points="50.166,53.003 50.166,37.406 23.717,37.406 33.488,53.003 	"/>
	<polygon fill="#22465C" points="105.89,16.574 105.89,0.977 155.157,0.977 145.389,16.574 	"/>
	<polygon fill="#81A3CC" points="12.308,19.191 22.078,34.788 133.979,34.788 143.747,19.191 	"/>
	<polygon fill="#22465C" points="105.89,53.003 105.89,37.406 132.339,37.406 122.569,53.003 	"/>
	<path fill="#C9CAC9" d="M108.743,14.404c-1.775,1.838-3.771,3.484-5.938,4.934V0.742H85.408v18.449H70.413V0.742H53.014v18.559
		c-1.999-1.347-3.854-2.856-5.515-4.537l-9.786-9.897l5.105,12.948c2.308,5.854,5.839,10.882,10.196,14.855v20.566h17.399V41.646
		c2.486,0.528,5.044,0.825,7.654,0.825l0.214-0.001c2.43-0.015,4.808-0.291,7.127-0.762v11.528h17.396V32.952
		c4.601-4.109,8.304-9.38,10.654-15.552l4.95-13.003L108.743,14.404z M45.471,16.77c2.194,2.22,4.736,4.199,7.542,5.906v5.956
		C49.82,25.249,47.233,21.238,45.471,16.77z M78.266,39.619c-0.067,0-0.132,0-0.198,0c-2.629,0-5.188-0.313-7.654-0.886v-3.944
		h14.995v4.003C83.101,39.305,80.717,39.604,78.266,39.619z M102.805,28.956v-6.252c2.995-1.811,5.687-3.935,7.989-6.318
		C108.98,21.149,106.231,25.409,102.805,28.956z"/>
	<path fill="#FFFFFF" d="M110.794,16.385c-7.59,7.858-19.35,12.942-32.588,13.021c-0.1,0.001-0.201,0.001-0.301,0.001
		c-13.115,0-24.812-4.929-32.434-12.638c5.29,13.417,17.905,22.85,32.596,22.85c0.066,0,0.131,0,0.198,0
		C93.046,39.531,105.64,29.925,110.794,16.385z"/>
</g>
</svg>
