<?xml version="1.0" encoding="utf-8"?>
<!-- Generator: Adobe Illustrator 16.0.4, SVG Export Plug-In . SVG Version: 6.00 Build 0)  -->
<!DOCTYPE svg PUBLIC "-//W3C//DTD SVG 1.1//EN" "http://www.w3.org/Graphics/SVG/1.1/DTD/svg11.dtd">
<svg version="1.1" id="Layer_1" xmlns="http://www.w3.org/2000/svg" xmlns:xlink="http://www.w3.org/1999/xlink" x="0px" y="0px"
	 width="75px" height="75px" viewBox="0 0 75 75" enable-background="new 0 0 75 75" xml:space="preserve">
<g>
	<path fill="#FFFFFF" d="M63.882,17.292l-0.927-0.927L50.822,4.232l-0.927-0.926c-0.419-0.419-1.001-0.661-1.597-0.661H13.417
		c-1.426,0-2.96,1.101-2.96,3.517v43.357v19.877v0.557c0,1.005,1.012,1.986,2.209,2.295c0.06,0.016,0.118,0.039,0.18,0.051
		c0.188,0.037,0.379,0.058,0.571,0.058h48.166c0.192,0,0.383-0.021,0.57-0.058c0.062-0.012,0.121-0.035,0.181-0.051
		c1.197-0.309,2.209-1.29,2.209-2.295v-0.557V49.519V19.445C64.543,18.523,64.433,17.843,63.882,17.292z M60.258,17.067H50.12V6.929
		L60.258,17.067z M13.417,69.952c-0.085,0-0.163-0.032-0.238-0.06c-0.188-0.089-0.318-0.276-0.318-0.497V51.923h49.278v17.473
		c0,0.221-0.131,0.407-0.318,0.497c-0.075,0.027-0.152,0.06-0.237,0.06H13.417z M12.861,49.519V6.161
		c0-0.261,0.04-1.113,0.557-1.113h34.369c-0.04,0.151-0.069,0.308-0.069,0.47v13.953H61.67c0.161,0,0.316-0.03,0.469-0.069
		c0,0.018,0,0.025,0,0.043v30.074H12.861z"/>
	<path fill="#FFFFFF" d="M29.137,56.423c-0.4-0.328-0.852-0.576-1.356-0.739c-0.503-0.165-1.013-0.247-1.528-0.247h-3.483v12.111
		h1.973v-4.371h1.462c0.635,0,1.216-0.093,1.742-0.279c0.525-0.186,0.975-0.449,1.347-0.788s0.662-0.759,0.872-1.258
		c0.208-0.498,0.312-1.054,0.312-1.668c0-0.58-0.124-1.104-0.37-1.569C29.862,57.147,29.538,56.752,29.137,56.423z M28.39,60.424
		c-0.122,0.334-0.279,0.594-0.476,0.78s-0.414,0.321-0.649,0.402c-0.235,0.082-0.475,0.124-0.715,0.124h-1.808v-4.798h1.478
		c0.504,0,0.909,0.08,1.217,0.237c0.306,0.159,0.544,0.356,0.715,0.592c0.169,0.235,0.281,0.482,0.336,0.739
		c0.054,0.257,0.082,0.484,0.082,0.682C28.57,59.677,28.51,60.09,28.39,60.424z"/>
	<path fill="#FFFFFF" d="M41.051,57.211c-0.51-0.535-1.15-0.967-1.924-1.289c-0.771-0.322-1.668-0.485-2.686-0.485h-3.648v12.111
		h4.584c0.153,0,0.388-0.019,0.707-0.058c0.317-0.039,0.669-0.125,1.052-0.264c0.384-0.137,0.779-0.342,1.19-0.616
		s0.78-0.648,1.11-1.127c0.329-0.477,0.6-1.067,0.813-1.774s0.32-1.559,0.32-2.555c0-0.725-0.125-1.429-0.377-2.112
		C41.94,58.358,41.561,57.749,41.051,57.211z M39.613,64.819c-0.592,0.855-1.556,1.281-2.892,1.281h-1.956v-9.169h1.15
		c0.942,0,1.709,0.123,2.3,0.37c0.592,0.246,1.061,0.569,1.405,0.97c0.346,0.4,0.577,0.846,0.698,1.339
		c0.12,0.492,0.18,0.991,0.18,1.495C40.499,62.727,40.204,63.966,39.613,64.819z"/>
	<polygon fill="#FFFFFF" points="45.431,67.548 47.436,67.548 47.436,62.092 52.496,62.092 52.496,60.745 47.436,60.745 
		47.436,56.933 53.005,56.933 53.005,55.437 45.431,55.437 	"/>
	<path fill="#FFFFFF" d="M48.832,30.242c-1.104,0-2.46,0.144-4.037,0.43c-2.198-2.334-4.494-5.743-6.114-9.089
		c1.606-6.766,0.803-7.724,0.447-8.175c-0.377-0.481-0.909-1.261-1.515-1.261c-0.254,0-0.946,0.116-1.222,0.207
		c-0.692,0.231-1.064,0.764-1.363,1.46c-0.85,1.987,0.316,5.374,1.516,7.984c-1.025,4.078-2.745,8.959-4.553,12.92
		c-4.555,2.086-6.975,4.136-7.193,6.091c-0.08,0.713,0.089,1.757,1.34,2.695c0.342,0.256,0.744,0.392,1.163,0.392l0,0
		c1.051,0,2.114-0.806,3.344-2.532c0.896-1.26,1.859-2.978,2.864-5.109c3.219-1.408,7.201-2.679,10.61-3.392
		c1.899,1.824,3.601,2.747,5.062,2.747c1.076,0,1.999-0.495,2.667-1.432c0.696-0.975,0.855-1.847,0.47-2.596
		C51.854,30.681,50.714,30.242,48.832,30.242z M27.327,41.868c-0.562-0.432-0.53-0.723-0.518-0.832
		c0.075-0.669,1.122-1.854,3.69-3.298C28.552,41.334,27.506,41.812,27.327,41.868z M37.183,14.317
		c0.052-0.017,1.256,1.323,0.116,3.865C35.584,16.429,37.065,14.357,37.183,14.317z M34.698,33.58
		c1.22-2.908,2.354-6.118,3.214-9.091c1.35,2.425,2.972,4.778,4.595,6.663C39.941,31.753,37.21,32.604,34.698,33.58z M50.204,33.003
		c-0.37,0.518-1.173,0.53-1.454,0.53c-0.641,0-0.88-0.381-1.859-1.135c0.808-0.103,1.569-0.129,2.177-0.129
		c1.068,0,1.264,0.157,1.412,0.237C50.453,32.591,50.383,32.752,50.204,33.003z"/>
</g>
</svg>
