<?xml version="1.0" encoding="utf-8"?>
<!-- Generator: Adobe Illustrator 16.0.4, SVG Export Plug-In . SVG Version: 6.00 Build 0)  -->
<!DOCTYPE svg PUBLIC "-//W3C//DTD SVG 1.1//EN" "http://www.w3.org/Graphics/SVG/1.1/DTD/svg11.dtd">
<svg version="1.1" id="Layer_1" xmlns="http://www.w3.org/2000/svg" xmlns:xlink="http://www.w3.org/1999/xlink" x="0px" y="0px"
	 width="500px" height="500px" viewBox="0 0 500 500" enable-background="new 0 0 500 500" xml:space="preserve">
<g id="Layer_2">
</g>
<g>
	<g>
		<path fill="#FFFFFF" d="M246.497,495.943c-33.211,0-65.8-5.876-96.861-17.463c-31.253-11.655-57.634-28.551-78.409-50.216
			l10.344-9.918c19.27,20.096,43.855,35.811,73.073,46.706c29.454,10.988,60.358,16.56,91.853,16.56
			c21.466,0,42.615-2.931,62.862-8.712c20.004-5.712,37.992-14.596,53.464-26.405c15.322-11.691,27.698-26.736,36.788-44.716
			c9.072-17.935,13.672-39.63,13.672-64.485c0-21.27-4.199-39.154-12.482-53.157c-8.466-14.306-19.283-26.455-32.151-36.109
			c-13.086-9.808-27.812-17.791-43.771-23.727c-16.681-6.196-32.802-11.892-47.909-16.928c-10.651-3.403-20.482-6.79-29.137-10.038
			c-8.972-3.363-16.849-7.137-23.41-11.215c-7.108-4.409-12.634-9.716-16.415-15.768c-3.917-6.266-5.903-14.023-5.903-23.054
			c0-10.461,2.492-19.3,7.405-26.272c4.607-6.553,10.404-11.979,17.223-16.119c6.749-4.091,14.394-6.889,22.728-8.318
			c7.842-1.346,15.7-2.029,23.355-2.029c15.103,0,30.911,3.788,46.987,11.258c16.142,7.504,29.438,17.811,39.52,30.632
			l-11.265,8.859c-8.678-11.035-20.217-19.95-34.295-26.496c-14.169-6.583-27.946-9.922-40.947-9.922
			c-6.845,0-13.888,0.613-20.933,1.822c-6.555,1.124-12.516,3.292-17.717,6.446c-5.115,3.106-9.469,7.183-12.938,12.116
			c-3.182,4.515-4.793,10.577-4.793,18.023c0,6.304,1.253,11.504,3.725,15.459c2.61,4.177,6.587,7.941,11.821,11.188
			c5.767,3.584,12.791,6.938,20.884,9.971c8.435,3.166,18.04,6.474,28.552,9.833c15.344,5.115,31.619,10.865,48.453,17.118
			c17.25,6.417,33.189,15.061,47.376,25.695c14.385,10.792,26.459,24.342,35.889,40.278c9.607,16.243,14.479,36.583,14.479,60.454
			c0,27.123-5.119,50.995-15.215,70.952c-10.072,19.925-23.826,36.628-40.882,49.641c-16.902,12.899-36.491,22.588-58.223,28.794
			C291.769,492.827,269.294,495.943,246.497,495.943z M246.497,405.441c-19.035,0-38.372-4.904-57.476-14.575
			c-19.012-9.612-34.589-21.798-46.294-36.219l11.127-9.031c10.425,12.844,24.434,23.766,41.637,32.463
			c17.082,8.647,34.242,13.031,51.006,13.031c7.575,0,15.043-0.806,22.196-2.396c6.787-1.504,12.773-3.963,17.798-7.312
			c4.816-3.211,8.563-7.403,11.457-12.819c2.845-5.34,4.289-11.98,4.289-19.73c0-7.081-1.665-12.86-5.089-17.667
			c-3.704-5.18-9.172-10.042-16.244-14.44c-7.437-4.614-16.889-8.92-28.084-12.793c-11.551-3.986-24.986-8.394-39.926-13.097
			c-14.793-4.78-29.424-10.501-43.538-17.018c-14.522-6.702-27.671-15.433-39.081-25.949c-11.56-10.647-20.969-23.718-27.965-38.849
			C95.271,193.842,91.7,175.228,91.7,153.718c0-26.389,5.501-49.397,16.35-68.385c10.757-18.825,25.083-34.512,42.581-46.625
			c17.298-11.976,37.079-20.86,58.791-26.406c21.452-5.471,43.428-8.245,65.318-8.245c26.348,0,53.603,4.888,81.009,14.527
			c27.527,9.697,52,24.229,72.742,43.195l-9.671,10.576c-19.312-17.658-42.133-31.201-67.829-40.253
			c-25.872-9.1-51.527-13.714-76.251-13.714c-20.696,0-41.48,2.625-61.774,7.8c-20.054,5.123-38.283,13.299-54.178,24.302
			c-15.724,10.886-28.608,25-38.295,41.953c-9.596,16.794-14.462,37.411-14.462,61.275c0,19.414,3.124,36.002,9.286,49.302
			c6.203,13.416,14.502,24.964,24.67,34.328c10.312,9.503,22.213,17.402,35.377,23.477c13.596,6.279,27.688,11.788,41.886,16.377
			c15.011,4.726,28.571,9.174,40.251,13.204c12.202,4.223,22.619,8.986,30.966,14.164c8.689,5.406,15.53,11.557,20.345,18.288
			c5.15,7.229,7.757,15.97,7.757,25.993c0,10.124-2.011,19.033-5.976,26.478c-3.984,7.453-9.417,13.506-16.152,17.996
			c-6.506,4.336-14.123,7.491-22.643,9.38C263.631,404.52,255.117,405.441,246.497,405.441z"/>
	</g>
</g>
</svg>
