<!--?xml version="1.0" encoding="utf-8"?-->
<!-- Generator: Adobe Illustrator 16.0.4, SVG Export Plug-In . SVG Version: 6.00 Build 0)  -->

<svg version="1.1" id="Layer_1" xmlns="http://www.w3.org/2000/svg" xmlns:xlink="http://www.w3.org/1999/xlink" x="0px" y="0px" width="500px" height="500px" viewBox="0 0 500 500" enable-background="new 0 0 500 500" xml:space="preserve" style="">
<path fill="none" stroke="#0000FF" stroke-width="12" stroke-miterlimit="10" d="M172.339,340.485
	c8.385,11.611,19.597,20.807,33.63,27.58c14.031,6.774,27.822,10.161,41.371,10.161c7.093,0,14.35-0.883,21.775-2.661
	c7.416-1.77,14.107-4.755,20.078-8.952c5.968-4.188,10.807-9.435,14.519-15.725c3.704-6.292,5.563-14.109,5.563-23.469
	c0-9.027-2.103-16.527-6.29-22.5c-4.195-5.965-9.845-11.13-16.936-15.484c-7.099-4.355-15.483-8.143-25.161-11.371
	c-9.679-3.221-19.84-6.607-30.485-10.161c-10.328-3.222-20.647-7.092-30.968-11.612c-10.328-4.514-19.597-10.479-27.823-17.903
	c-8.225-7.417-14.924-16.528-20.08-27.34c-5.164-10.804-7.742-24.27-7.742-40.403c0-17.42,3.629-32.42,10.888-45.001
	c7.258-12.58,16.769-22.983,28.548-31.21c11.771-8.226,25.161-14.35,40.161-18.388c15.001-4.028,30.243-6.048,45.729-6.048
	c17.418,0,35.078,3.069,52.983,9.194c17.903,6.131,33.461,15.325,46.695,27.58 M172.339,340.485 M128.79,381.13 M329.115,150.321
	c-6.456-8.385-15.567-15.401-27.34-21.048c-11.779-5.641-23.635-8.468-35.565-8.468c-7.099,0-14.197,0.892-21.29,2.661
	c-7.1,1.776-13.548,4.521-19.354,8.226c-5.807,3.713-10.57,8.551-14.275,14.517c-3.711,5.973-5.564,13.147-5.564,21.532
	c0,7.742,1.611,14.357,4.84,19.839c3.22,5.489,7.658,10.161,13.307,14.032c5.64,3.871,12.497,7.259,20.564,10.162
	c8.058,2.903,16.934,5.807,26.613,8.71c10.963,3.553,22.333,7.583,34.113,12.097c11.771,4.521,22.576,10.486,32.419,17.903
	c9.838,7.424,17.903,16.775,24.195,28.064c6.288,11.296,9.433,25.327,9.433,42.098c0,18.387-3.387,34.438-10.16,48.146
	c-6.774,13.714-15.807,25.086-27.095,34.113c-11.296,9.035-24.521,15.809-39.68,20.323c-15.166,4.513-31.135,6.773-47.904,6.773
	c-22.258,0-44.032-4.113-65.322-12.34c-21.291-8.226-38.711-20.396-52.259-36.532 M329.115,150.321 M368.794,106.772" class="VwsxoMBr_0"></path>
<style>.VwsxoMBr_0{stroke-dasharray:1436 1438;stroke-dashoffset:1437;animation:VwsxoMBr_draw_0 6200ms ease-in 0ms infinite,VwsxoMBr_fade 6200ms linear 0ms infinite;}@keyframes VwsxoMBr_draw{100%{stroke-dashoffset:0;}}@keyframes VwsxoMBr_fade{0%{stroke-opacity:1;}93.54838709677419%{stroke-opacity:1;}100%{stroke-opacity:0;}}@keyframes VwsxoMBr_draw_0{12.903225806451612%{stroke-dashoffset: 1437}45.16129032258064%{ stroke-dashoffset: 0;}100%{ stroke-dashoffset: 0;}}</style></svg>
