<!--?xml version="1.0" encoding="utf-8"?-->
<!-- Generator: Adobe Illustrator 16.0.4, SVG Export Plug-In . SVG Version: 6.00 Build 0)  -->

<svg version="1.1" xmlns="http://www.w3.org/2000/svg" xmlns:xlink="http://www.w3.org/1999/xlink" x="0px" y="0px" width="500px" height="500px" viewBox="0 0 500 500" enable-background="new 0 0 500 500" xml:space="preserve" style="">
<g id="Layer_2">
</g>
<g id="Layer_1">
	<g>
		<path fill="#FFFFFF" d="M323.003,178.988c-7.886-10.028-18.19-18.006-30.905-23.918c-12.723-5.912-24.993-8.868-36.817-8.868
			c-6.098,0-12.278,0.537-18.543,1.612c-6.273,1.075-11.918,3.141-16.932,6.181c-5.021,3.048-9.229,6.987-12.631,11.825
			c-3.409,4.837-5.105,11.019-5.105,18.543c0,6.45,1.344,11.825,4.031,16.125c2.687,4.3,6.626,8.062,11.824,11.287
			c5.19,3.225,11.371,6.181,18.543,8.869c7.164,2.688,15.227,5.467,24.188,8.331c12.899,4.3,26.337,9.053,40.312,14.243
			c13.975,5.198,26.689,12.094,38.161,20.693c11.464,8.6,20.962,19.266,28.486,31.98c7.525,12.723,11.288,28.579,11.288,47.567
			c0,21.86-4.031,40.765-12.094,56.705c-8.062,15.948-18.904,29.116-32.518,39.505c-13.622,10.396-29.209,18.098-46.762,23.112
			c-17.561,5.014-35.659,7.524-54.286,7.524c-27.235,0-53.572-4.754-79.011-14.243c-25.446-9.49-46.585-23.02-63.423-40.58
			l60.198-61.273c9.313,11.472,21.583,21.054,36.817,28.755c15.227,7.71,30.368,11.557,45.418,11.557
			c6.803,0,13.438-0.714,19.887-2.15c6.45-1.428,12.094-3.763,16.931-6.987c4.838-3.225,8.685-7.524,11.557-12.899
			c2.863-5.375,4.3-11.825,4.3-19.35c0-7.164-1.798-13.253-5.375-18.274c-3.586-5.014-8.692-9.583-15.318-13.706
			c-6.635-4.115-14.873-7.878-24.725-11.287c-9.859-3.401-21.054-7.071-33.593-11.019c-12.186-3.938-24.103-8.6-35.743-13.975
			c-11.647-5.375-22.036-12.27-31.174-20.693c-9.137-8.415-16.485-18.627-22.037-30.637c-5.56-12.001-8.331-26.605-8.331-43.805
			c0-21.138,4.3-39.236,12.9-54.286c8.6-15.049,19.887-27.412,33.861-37.086s29.738-16.746,47.299-21.231
			c17.552-4.476,35.289-6.718,53.211-6.718c21.499,0,43.444,3.947,65.842,11.825c22.39,7.886,42.008,19.534,58.854,34.937
			L323.003,178.988z" class="sqnSiCVE_0"></path>
	</g>
	<g>
		<path fill="none" stroke="#0000FF" stroke-width="12" stroke-miterlimit="10" d="M336.804,158.627 M395.39,96.816
			 M164.809,333.848c9.313,11.473,21.583,21.055,36.817,28.756c15.227,7.709,30.368,11.557,45.418,11.557
			c6.803,0,13.438-0.715,19.887-2.15c6.45-1.428,12.094-3.764,16.931-6.988c4.838-3.225,8.685-7.523,11.557-12.898
			c2.863-5.375,4.3-11.826,4.3-19.35c0-7.164-1.798-13.254-5.375-18.275c-3.586-5.014-8.692-9.582-15.318-13.705
			c-6.635-4.115-14.873-7.879-24.725-11.287c-9.859-3.402-21.054-7.072-33.593-11.02c-12.186-3.938-24.103-8.6-35.743-13.975
			c-11.647-5.375-22.036-12.27-31.174-20.693c-9.137-8.415-16.485-18.627-22.037-30.637c-5.56-12.001-8.331-26.605-8.331-43.805
			c0-21.138,4.3-39.236,12.9-54.286c8.6-15.049,19.887-27.412,33.861-37.086s29.738-16.746,47.299-21.231
			c17.552-4.476,35.289-6.718,53.211-6.718c21.499,0,43.444,3.947,65.842,11.825c22.39,7.886,42.008,19.534,58.854,34.937
			 M164.809,333.848 M104.61,395.121 M336.804,158.627c-7.886-10.028-18.19-18.006-30.905-23.918
			c-12.723-5.912-24.993-8.868-36.817-8.868c-6.098,0-12.278,0.537-18.543,1.612c-6.273,1.075-11.918,3.141-16.932,6.181
			c-5.021,3.048-9.229,6.987-12.631,11.825c-3.409,4.837-5.105,11.019-5.105,18.543c0,6.45,1.344,11.825,4.031,16.125
			c2.687,4.3,6.626,8.062,11.824,11.287c5.19,3.225,11.371,6.181,18.543,8.869c7.164,2.688,15.227,5.467,24.188,8.331
			c12.899,4.3,26.337,9.053,40.312,14.243c13.975,5.198,26.689,12.094,38.161,20.693c11.464,8.6,20.962,19.266,28.486,31.981
			c7.525,12.723,11.288,28.578,11.288,47.566c0,21.861-4.031,40.766-12.094,56.705c-8.062,15.949-18.904,29.117-32.518,39.506
			c-13.622,10.396-29.209,18.098-46.762,23.111c-17.561,5.014-35.659,7.525-54.286,7.525c-27.235,0-53.572-4.754-79.011-14.244
			c-25.446-9.49-46.585-23.02-63.423-40.58" class="sqnSiCVE_1"></path>
	</g>
</g>
<style>.sqnSiCVE_0{stroke-dasharray:1737 1739;stroke-dashoffset:1738;animation:sqnSiCVE_draw_0 6200ms ease-in 0ms infinite,sqnSiCVE_fade 6200ms linear 0ms infinite;}.sqnSiCVE_1{stroke-dasharray:1566 1568;stroke-dashoffset:1567;animation:sqnSiCVE_draw_1 6200ms ease-in 0ms infinite,sqnSiCVE_fade 6200ms linear 0ms infinite;}@keyframes sqnSiCVE_draw{100%{stroke-dashoffset:0;}}@keyframes sqnSiCVE_fade{0%{stroke-opacity:1;}93.54838709677419%{stroke-opacity:1;}100%{stroke-opacity:0;}}@keyframes sqnSiCVE_draw_0{12.903225806451612%{stroke-dashoffset: 1738}35.483870967741936%{ stroke-dashoffset: 0;}100%{ stroke-dashoffset: 0;}}@keyframes sqnSiCVE_draw_1{22.58064516129032%{stroke-dashoffset: 1567}45.16129032258064%{ stroke-dashoffset: 0;}100%{ stroke-dashoffset: 0;}}</style></svg>
