<?xml version="1.0" encoding="utf-8"?>
<!-- Generator: Adobe Illustrator 16.0.4, SVG Export Plug-In . SVG Version: 6.00 Build 0)  -->
<!DOCTYPE svg PUBLIC "-//W3C//DTD SVG 1.1//EN" "http://www.w3.org/Graphics/SVG/1.1/DTD/svg11.dtd">
<svg version="1.1" id="Layer_1" xmlns="http://www.w3.org/2000/svg" xmlns:xlink="http://www.w3.org/1999/xlink" x="0px" y="0px"
	 width="113.547px" height="61.838px" viewBox="193.188 152.305 113.547 61.838"
	 enable-background="new 193.188 152.305 113.547 61.838" xml:space="preserve">
<g>
	<path d="M213.506,208.131c-1.414,0-1.945-0.707-1.945-2.033v-2.209c-2.386,1.414-5.126,1.945-7.778,1.768v0.354
		c0,1.326-0.53,2.121-2.033,2.121c-0.442,0-0.795,0.354-0.795,0.707c0,0.443,0.354,0.797,0.795,0.797h11.756
		c0.442,0,0.795-0.354,0.795-0.797C214.302,208.485,213.948,208.131,213.506,208.131z"/>
	<path d="M298.174,208.097c-1.504,0-2.033-0.795-2.033-2.121v-0.354c-2.651,0.178-5.393-0.354-7.779-1.768v2.209
		c0,1.326-0.529,2.033-1.943,2.033c-0.441,0-0.796,0.354-0.796,0.707c0,0.443,0.354,0.797,0.796,0.797h11.757
		c0.441,0,0.796-0.354,0.796-0.797C298.969,208.451,298.615,208.097,298.174,208.097z"/>
	<path d="M300.473,181.58c-1.416-0.795-3.184-1.326-4.332-1.592v-21.214c0-2.475,0.973-4.066,4.686-4.95
		c0.354-0.088,0.707-0.265,0.707-0.707c0-0.442-0.354-0.707-0.707-0.795c-4.243-0.354-8.928,4.772-14.408,4.685
		c-0.441,0-0.796,0.354-0.796,0.796c0,0.442,0.354,0.795,0.796,0.795c0.973,0,1.943,0.795,1.943,1.856v20.065
		c-2.387,0.707-6.981,2.916-8.573,4.596v-24.75c0-1.326,0.619-1.945,2.032-1.945c0.354,0,0.707-0.354,0.707-0.795
		s-0.354-0.708-0.707-0.708c0,0-11.969,0.017-12.029,0.029h-6.98c-0.443,0-0.797,0.266-0.797,0.708c0,0.442,0.354,0.795,0.797,0.795
		c1.235,0,2.209,0.707,1.942,1.945l-5.303,35.8l-5.479-26.43c-0.179-0.884-0.267-1.68-1.414-1.945
		c-0.886-0.177-1.769,0.354-1.945,1.238l-0.177,0.795l-5.304,26.076l-5.569-35.356c-0.265-1.326,0.53-2.122,1.944-2.122
		c0.442,0,0.796-0.354,0.796-0.795c0-0.441-0.354-0.708-0.796-0.708h-11.756c-0.012,0-0.022,0.005-0.035,0.005h-11.611
		c-0.354,0-0.707,0.266-0.707,0.708c0,0.442,0.354,0.795,0.707,0.795c1.414,0,2.033,0.619,2.033,1.945v24.75
		c-1.591-1.68-6.188-3.889-8.575-4.596v-20.065c0-1.062,0.973-1.856,1.945-1.856c0.442,0,0.795-0.354,0.795-0.795
		s-0.354-0.796-0.795-0.796c-5.48,0.088-10.165-5.038-14.408-4.685c-0.354,0.088-0.707,0.354-0.707,0.795s0.354,0.619,0.707,0.707
		c3.712,0.884,4.685,2.475,4.685,4.95v21.214c-1.149,0.266-2.917,0.797-4.332,1.592c-7.602,3.889-7.956,13.967-2.829,19.357
		c1.149,1.238,2.475,2.123,3.89,2.652c5.215,2.121,15.204-1.148,16.264-6.982c0.531-3.094-1.502-6.012-2.386-3.801
		c-0.619,1.414-1.591,2.74-2.829,3.801v-11.314c-2.209-1.061-5.303-1.768-7.778-0.973v16c-2.829,0.264-5.569-0.707-6.983-3.713
		c-1.502-3.094-1.502-7.072,0.53-9.988c1.238-1.68,3.183-3.006,5.923-3.537c5.48-1.768,15.027,2.033,16.883,7.072v15.822
		c0,1.326-0.531,2.121-2.033,2.121c-0.354,0-0.707,0.354-0.707,0.707c0,0.443,0.354,0.797,0.707,0.797
		c3.978,0,7.867,4.508,11.845,4.508c0.442,0,0.795-0.354,0.795-0.795c0-0.443-0.354-0.797-0.795-0.797
		c-1.415,0-2.033-1.68-2.033-3.094v-49.058c0-1.127,0.936-1.909,1.973-1.939c1.378,0.058,1.727,0.918,1.983,2.199l7.779,46.671
		c0.707,2.918,5.215,3.271,6.099,0c0.708-2.828,2.563-12.904,4.332-20.508l4.331,20.508c0.707,2.918,5.215,3.271,6.1,0
		c1.326-4.861,5.568-37.832,7.602-46.671c0.267-1.238,0.354-2.21,2.121-2.21c0.007,0,0.012-0.003,0.018-0.003
		c0.948,0.124,1.76,0.871,1.76,1.919v49.058c0,1.414-0.617,3.094-2.033,3.094c-0.441,0-0.795,0.354-0.795,0.797
		c0,0.441,0.354,0.795,0.795,0.795c3.979,0,7.867-4.508,11.846-4.508c0.354,0,0.707-0.354,0.707-0.797
		c0-0.354-0.354-0.707-0.707-0.707c-1.502,0-2.033-0.795-2.033-2.121v-15.822c1.855-5.039,11.402-8.84,16.883-7.072
		c2.74,0.531,4.686,1.857,5.924,3.537c2.032,2.916,2.032,6.895,0.529,9.988c-1.414,3.006-4.154,3.977-6.982,3.713v-16
		c-2.476-0.795-5.568-0.088-7.778,0.973v11.314c-1.237-1.061-2.209-2.387-2.828-3.801c-0.886-2.211-2.918,0.707-2.388,3.801
		c1.062,5.834,11.05,9.104,16.265,6.982c1.415-0.529,2.739-1.414,3.892-2.652C308.428,195.546,308.073,185.468,300.473,181.58z"/>
</g>
</svg>
