<?xml version="1.0" encoding="UTF-8" standalone="no"?>
<svg width="1024px" height="1003px" viewBox="0 0 1024 1003" version="1.1" xmlns="http://www.w3.org/2000/svg" xmlns:xlink="http://www.w3.org/1999/xlink">
    <!-- Generator: Sketch 47 (45396) - http://www.bohemiancoding.com/sketch -->
    <title>field</title>
    <desc>Created with Sketch.</desc>
    <defs></defs>
    <g id="Page-1" stroke="none" stroke-width="1" fill="none" fill-rule="evenodd" opacity="0.0451842351">
        <g id="Comp-1-Home" transform="translate(0.000000, -485.000000)" fill-rule="nonzero">
            <g id="field" transform="translate(-12.000000, 485.000000)">
                <path d="M1031,657 L1031,529 C812.366121,529 687.233974,559.47558 577,593.030969 C687.236208,626.569271 812.439841,657 1031,657 Z" id="Shape" fill="#FFE6B8"></path>
                <path d="M17,885 L17,987 L594,987 C567.981799,979.418373 542.988199,971.575164 518.513582,963.878696 C395.198312,925.100746 267.688856,885 17,885 Z" id="Shape" fill="#D4ED85"></path>
                <path d="M255.098022,661.859536 C246.025609,660.588188 239.740088,652.558284 240.998971,643.890581 C230.038233,642.493798 218.768334,641.194812 207.167033,640 C206.284035,648.193606 199.055464,654.314361 190.596923,654.314361 C190.063121,654.314361 189.52487,654.288849 188.982171,654.239951 C135.675349,649.345898 79.4192703,646.966903 17,646.966903 L17,732.989132 C272.677908,732.989132 402.589793,773.887002 528.222365,813.439113 C604.249143,837.375752 682.860413,862.122397 789.100396,877.144716 C798.172809,878.426694 804.447209,886.467228 803.172756,895.134931 C813.915525,896.518958 824.949662,897.80944 836.306303,899 C837.258251,890.289776 845.347578,883.971303 854.517855,884.785561 C908.523068,889.836938 965.597644,892.290343 1029,892.290343 L1029,806.268114 C773.324316,806.268114 643.414655,765.370244 517.784308,725.818133 C441.328264,701.747556 362.272158,676.860595 255.098022,661.859536 Z" id="Shape" fill="#D4ED85"></path>
                <path d="M836.284485,899.908231 C824.943437,898.609023 813.909325,897.309815 803.16658,895.920859 C803.159907,895.959322 803.159907,895.997786 803.155459,896.038386 C801.929941,904.000309 794.808145,909.720671 786.676577,909.720671 C785.864754,909.720671 785.041811,909.665113 784.214419,909.545449 C675.143301,894.046837 595.146545,868.733647 517.783207,844.253831 C394.65088,805.290409 267.32599,765 17,765 L17,851.459308 C272.67957,851.459308 402.59117,892.568133 528.223465,932.324328 C569.346162,945.337778 611.867862,958.793557 658.097255,970.507798 C665.58159,972.405326 670.510353,978.899229 670.508129,986 L1029,986 L1029,925.114578 C964.503491,925.114578 906.368111,922.597362 851.268725,917.419762 C842.096244,916.558609 835.390368,908.718486 836.284485,899.908231 Z" id="Shape" fill="#BCC987"></path>
                <path d="M517.779859,608.068688 C394.649486,569.196287 267.324316,529 17,529 L17,615.259463 C80.4957714,615.259463 137.797213,617.694052 192.17164,622.697535 C201.341916,623.541753 208.063376,631.352901 207.182602,640.142575 C207.178154,640.178817 207.169257,640.215058 207.167033,640.2513 C218.768334,641.449407 230.036009,642.751976 240.998971,644.15261 C241.005644,644.112105 241.005644,644.073731 241.010092,644.033226 C242.344598,635.294717 250.812035,629.261543 259.93338,630.530002 C369.965582,645.97109 450.41847,671.370112 528.220141,695.933444 C651.352738,734.803713 778.675684,775 1029,775 L1029,688.742668 C773.324316,688.742668 643.414655,647.732009 517.779859,608.068688 Z" id="Shape" fill="#BCC987"></path>
                <path d="M658.576298,971.174609 C612.293064,959.349559 569.719794,945.766497 528.544996,932.629949 C402.760333,892.499844 272.691174,851 16.7015133,851 C7.47559734,851 0,858.243437 0,867.178015 C0,876.112593 7.47559734,883.35603 16.7015133,883.35603 C267.331102,883.35603 394.810412,924.027559 518.09653,963.361706 C542.56536,971.168138 567.553051,979.123407 593.565101,986.813357 C611.820968,992.210343 630.566747,997.480061 650.054072,1002.46073 C651.483722,1002.82528 652.915598,1003 654.325206,1003 C661.722863,1003 668.485863,998.200522 670.463322,990.944143 C670.839662,989.563619 670.999997,988.178781 670.999997,986.813357 C671.004451,979.645418 666.06971,973.090086 658.576298,971.174609 Z" id="Shape" fill="#4D3D36"></path>
                <path d="M837.083228,900.114707 C836.168956,908.879709 842.892198,916.587952 852.083973,917.434619 C907.32382,922.525127 965.611983,925 1030.27552,925 C1039.51412,925 1047,917.947241 1047,909.243166 C1047,900.539091 1039.51412,893.486332 1030.27552,893.486332 C966.709109,893.486332 909.486853,891.061881 855.341902,886.070116 C846.147897,885.263366 838.037638,891.509375 837.083228,900.114707 Z" id="Shape" fill="#4D3D36"></path>
                <path d="M518.746985,844.449278 C596.301395,868.96046 676.495727,894.306083 785.83623,909.824553 C786.665665,909.944371 787.490641,910 788.304468,910 C796.456121,910 803.595505,904.270169 804.82405,896.300184 C804.830739,896.261671 804.830739,896.223158 804.835199,896.182506 C806.112796,887.459384 799.825143,879.367442 790.728113,878.077267 C684.225973,862.96104 605.420721,838.054034 529.206339,813.964352 C403.263757,774.159357 273.0313,733 16.7224815,733 C7.48498273,733 0,740.184754 0,749.04695 C0,757.909146 7.48498273,765.0939 16.7224815,765.0939 C267.671188,765.0939 395.310545,805.435933 518.746985,844.449278 Z" id="Shape" fill="#4D3D36"></path>
                <path d="M260.121874,632.168779 C250.987383,630.897565 242.507742,636.943843 241.171313,645.701333 C241.164631,645.741927 241.164631,645.780384 241.160177,645.820977 C239.901706,654.531464 246.194058,662.601003 255.279547,663.878627 C362.610369,678.95373 441.778182,703.963532 518.342187,728.15292 C644.153592,767.90026 774.250478,809 1030.29464,809 C1039.52268,809 1047,801.827789 1047,792.976293 C1047,784.124797 1039.52268,776.952586 1030.29464,776.952586 C779.609558,776.952586 652.103116,736.671123 528.79306,697.714286 C450.879262,673.099736 370.310426,647.643407 260.121874,632.168779 Z" id="Shape" fill="#4D3D36"></path>
                <path d="M189.628511,654.92604 C190.17175,654.974642 190.712754,655 191.251522,655 C199.751093,655 207.016639,648.916287 207.906389,640.772269 C207.91086,640.736346 207.919802,640.700423 207.922038,640.664499 C208.807317,631.952048 202.051477,624.211638 192.834293,623.372724 C138.18174,618.411086 80.587199,616 16.7666443,616 C7.50474997,616 0,623.095904 0,631.848505 C0,640.601105 7.50474997,647.697009 16.7666443,647.697009 C79.5051916,647.697009 136.049023,650.061606 189.628511,654.92604 Z" id="Shape" fill="#4D3D36"></path>
                <path d="M518.273911,609.20846 C644.103262,648.927444 774.216402,690 1030.29255,690 C1039.52175,690 1047,682.832905 1047,673.987724 C1047,665.142543 1039.52175,657.975448 1030.29255,657.975448 C812.345023,657.975448 687.493615,627.556393 577.567526,594.030957 C687.491387,560.488441 812.271511,530.026687 1030.29033,530.024552 C1039.51952,530.024552 1047,522.857457 1047,514.012276 C1047,505.167095 1039.52175,498 1030.29255,498 C777.751698,498 647.823453,537.975181 523.606928,577.175368 C399.345849,537.966641 269.312904,498 16.7074468,498 C7.47825319,498 0,505.167095 0,514.012276 C0,522.855322 7.47825319,530.024552 16.7074468,530.024552 C267.426077,530.024552 394.950677,570.279414 518.273911,609.20846 Z" id="Shape" fill="#4D3D36"></path>
                <path d="M523.001116,97 C457.384888,97 404,147.917042 404,210.5 C404,273.082958 457.384888,324 523.001116,324 C588.617344,324 642,273.082958 642,210.5 C642,147.917042 588.617344,97 523.001116,97 Z" id="Shape" fill="#FFAD61"></path>
                <path d="M674,209.5 C674,129.270112 606.037839,64 522.501109,64 C438.962161,64 371,129.270112 371,209.5 C371,289.729888 438.962161,355 522.501109,355 C606.037839,355.00213 674,289.729888 674,209.5 Z M522.501109,323.055002 C457.306578,323.055002 404.264779,272.114241 404.264779,209.50213 C404.264779,146.890018 457.306578,95.9471281 522.501109,95.9471281 C587.69564,95.9471281 640.735221,146.887889 640.735221,209.5 C640.735221,272.112111 587.69564,323.055002 522.501109,323.055002 Z" id="Shape" fill="#4D3D36"></path>
                <path d="M485.738138,417.777509 C486.670976,417.927263 487.594908,418 488.507708,418 C496.522538,418 503.5934,412.439873 504.958148,404.594939 C506.478739,395.853625 500.334036,387.585102 491.239429,386.126077 C401.515627,371.732645 336.395128,297.801574 336.395128,210.330665 C336.395128,112.049706 419.60688,32.0899953 521.885025,32.0899953 C612.913464,32.0899953 689.851385,94.6676254 704.830213,180.884885 C706.348578,189.624061 714.948937,195.537177 724.050222,194.067456 C733.144829,192.60843 739.289532,184.339908 737.768941,175.598594 C729.344463,127.104193 703.147099,82.6702459 664.00133,50.4861199 C624.408067,17.92975 573.934671,0 521.885025,0 C401.190581,0 303,94.3531435 303,210.330665 C303,260.348271 321.658971,308.846951 355.537215,346.894988 C389.030302,384.508742 435.269195,409.682273 485.738138,417.777509 Z" id="Shape" fill="#4D3D36"></path>
                <path d="M556.813548,418 C557.733574,418 558.664819,417.929266 559.602797,417.777079 C652.464824,402.972155 725.268044,333.427379 740.767114,244.728584 C742.299742,235.972522 736.106397,227.688024 726.937554,226.226179 C717.764223,224.747187 709.098028,230.67816 707.567643,239.436365 C694.433713,314.592737 632.744855,373.520923 554.062446,386.06449 C544.893603,387.526334 538.700258,395.810833 540.232886,404.566894 C541.608437,412.42913 548.737516,418 556.813548,418 Z" id="Shape" fill="#4D3D36"></path>
            </g>
        </g>
    </g>
</svg>