<?xml version="1.0" encoding="utf-8"?>
<!-- Generator: Adobe Illustrator 16.0.4, SVG Export Plug-In . SVG Version: 6.00 Build 0)  -->
<!DOCTYPE svg PUBLIC "-//W3C//DTD SVG 1.1//EN" "http://www.w3.org/Graphics/SVG/1.1/DTD/svg11.dtd">
<svg version="1.1" id="Layer_1" xmlns="http://www.w3.org/2000/svg" xmlns:xlink="http://www.w3.org/1999/xlink" x="0px" y="0px"
	 width="50px" height="31.216px" viewBox="0 0 50 31.216" enable-background="new 0 0 50 31.216" xml:space="preserve">
<g>
	<path fill="#FFFFFF" d="M13.237,13.139h12.51v15.624c-3.396,1.162-7.131,1.744-11.201,1.744c-4.468,0-7.921-1.295-10.359-3.885
		c-2.438-2.592-3.658-6.287-3.658-11.084c0-4.679,1.335-8.319,4.005-10.924c2.67-2.604,6.41-3.906,11.223-3.906
		c1.824,0,3.544,0.172,5.164,0.517c1.619,0.343,3.03,0.779,4.232,1.308l-2.478,6.146c-2.088-1.031-4.382-1.547-6.88-1.547
		c-2.287,0-4.055,0.743-5.304,2.23s-1.873,3.611-1.873,6.375c0,2.709,0.564,4.773,1.694,6.195c1.13,1.42,2.76,2.131,4.887,2.131
		c1.163,0,2.234-0.111,3.213-0.338v-4.54h-5.175V13.139z"/>
	<path fill="#FFFFFF" d="M49.472,10.344c0,3.237-0.955,5.739-2.866,7.505c-1.91,1.764-4.621,2.646-8.138,2.646h-2.201v9.615h-7.831
		V1.125h10.032c3.661,0,6.41,0.8,8.248,2.398C48.553,5.124,49.472,7.397,49.472,10.344z M36.267,14.112h1.427
		c1.177,0,2.111-0.33,2.806-0.991s1.042-1.573,1.042-2.736c0-1.956-1.084-2.935-3.252-2.935h-2.022V14.112z"/>
</g>
</svg>
